<svg
  xmlns="http://www.w3.org/2000/svg"
  xmlns:xlink="http://www.w3.org/1999/xlink"
  viewBox="0 0 500 500"
  width="500"
  height="500"
  preserveAspectRatio="xMidYMid meet"
  style="width: 100%; height: 100%; transform: translate3d(0px, 0px, 0px); content-visibility: visible;"
><defs><clipPath id="__lottie_element_1642"><rect
        width="500"
        height="500"
        x="0"
        y="0"
      /></clipPath><linearGradient
      id="__lottie_element_1649"
      spreadMethod="pad"
      gradientUnits="userSpaceOnUse"
      x1="4.199999809265137"
      y1="-5.800000190734863"
      x2="16"
      y2="18"
    ><stop offset="0%" stop-color="rgb(229,229,229)" /><stop
        offset="50%"
        stop-color="rgb(234,234,234)"
      /><stop
        offset="100%"
        stop-color="rgb(239,239,239)"
      /></linearGradient></defs><g clip-path="url(#__lottie_element_1642)"><g
      transform="matrix(5,0,0,5,0.022003173828125,0.5260162353515625)"
      opacity="1"
      style="display: block;"
    ><g
        opacity="1"
        transform="matrix(1,0,0,1,49.986000061035156,49.683998107910156)"
      ><path
          fill="rgb(238,238,238)"
          fill-opacity="1"
          d=" M21.45599937438965,0 C21.45599937438965,11.850000381469727 11.850000381469727,21.457000732421875 -0.0010000000474974513,21.457000732421875 C-11.85099983215332,21.457000732421875 -21.45599937438965,11.850000381469727 -21.45599937438965,0 C-21.45599937438965,-11.850000381469727 -11.85099983215332,-21.457000732421875 -0.0010000000474974513,-21.457000732421875 C11.850000381469727,-21.457000732421875 21.45599937438965,-11.850000381469727 21.45599937438965,0z"
        /></g></g><g
      transform="matrix(5,0,0,5,0.022003173828125,-1.0539932250976562)"
      opacity="1"
      style="display: block;"
    ><g opacity="1" transform="matrix(1,0,0,1,49.986000061035156,50)"><path
          fill="url(#__lottie_element_1649)"
          fill-opacity="1"
          d=" M-3.7290000915527344,-21.132999420166016 C-2.5179998874664307,-21.344999313354492 -1.2730000019073486,-21.45599937438965 -0.0010000000474974513,-21.45599937438965 C11.850000381469727,-21.45599937438965 21.45599937438965,-11.848999977111816 21.45599937438965,0.0010000000474974513 C21.45599937438965,0.0010000000474974513 21.45599937438965,0.0010000000474974513 21.45599937438965,0.0010000000474974513 C21.45599937438965,11.85200023651123 11.850000381469727,21.45599937438965 -0.0010000000474974513,21.45599937438965 C-11.85099983215332,21.45599937438965 -21.45599937438965,11.85200023651123 -21.45599937438965,0.0010000000474974513 C-21.45599937438965,-10.57699966430664 -13.802000045776367,-19.368000030517578 -3.7290000915527344,-21.132999420166016"
        /></g></g><g
      transform="matrix(5,0,0,5,-74.99798583984375,0.001018524169921875)"
      opacity="1"
      style="display: block;"
    ><g
        opacity="1"
        transform="matrix(1,0,0,1,57.709999084472656,49.25299835205078)"
      ><path
          fill="rgb(96,122,135)"
          fill-opacity="1"
          d=" M7.144999980926514,-4.019000053405762 C7.144999980926514,-4.019000053405762 7.144999980926514,-5.97599983215332 7.144999980926514,-5.97599983215332 C7.144999980926514,-5.97599983215332 1.5119999647140503,-5.97599983215332 1.5119999647140503,-5.97599983215332 C1.5119999647140503,-5.97599983215332 1.5119999647140503,-7.882999897003174 1.5119999647140503,-7.882999897003174 C1.5119999647140503,-7.882999897003174 -0.4440000057220459,-7.882999897003174 -0.4440000057220459,-7.882999897003174 C-0.4440000057220459,-7.882999897003174 -0.4440000057220459,-5.97599983215332 -0.4440000057220459,-5.97599983215332 C-0.4440000057220459,-5.97599983215332 -7.144999980926514,-5.97599983215332 -7.144999980926514,-5.97599983215332 C-7.144999980926514,-5.97599983215332 -7.144999980926514,-4.019000053405762 -7.144999980926514,-4.019000053405762 C-7.144999980926514,-4.019000053405762 3.634999990463257,-4.019000053405762 3.634999990463257,-4.019000053405762 C3.190000057220459,-2.9089999198913574 2.2960000038146973,-1.1440000534057617 0.6420000195503235,0.6570000052452087 C0.6349999904632568,0.6499999761581421 0.6269999742507935,0.6420000195503235 0.6209999918937683,0.6340000033378601 C-1.0230000019073486,-1.1269999742507935 -1.246999979019165,-2.568000078201294 -1.2489999532699585,-2.5820000171661377 C-1.2489999532699585,-2.5820000171661377 -2.934999942779541,-2.367000102996826 -2.934999942779541,-2.367000102996826 C-2.924999952316284,-2.2880001068115234 -2.6730000972747803,-0.40400001406669617 -0.621999979019165,1.7940000295639038 C-0.5910000205039978,1.8270000219345093 -0.5550000071525574,1.8639999628067017 -0.5230000019073486,1.8980000019073486 C-2.631999969482422,4.125 -3.9519999027252197,5.460000038146973 -3.9670000076293945,5.47599983215332 C-3.9670000076293945,5.47599983215332 -2.757999897003174,6.671000003814697 -2.757999897003174,6.671000003814697 C-2.74399995803833,6.656000137329102 -1.434999942779541,5.331999778747559 0.652999997138977,3.128999948501587 C2.6659998893737793,5.203999996185303 5.331999778747559,7.849999904632568 5.364999771118164,7.882999897003174 C5.364999771118164,7.882999897003174 6.561999797821045,6.676000118255615 6.561999797821045,6.676000118255615 C6.5289998054504395,6.644000053405762 3.821000099182129,3.9560000896453857 1.819000005722046,1.8899999856948853 C4.044000148773193,-0.503000020980835 5.048999786376953,-2.8369998931884766 5.451000213623047,-4.019000053405762 C5.451000213623047,-4.019000053405762 7.144999980926514,-4.019000053405762 7.144999980926514,-4.019000053405762z"
        /></g></g><g
      transform="matrix(5,0,0,5,0.022003173828125,-1.0539932250976562)"
      opacity="1"
      style="display: block;"
    ><g opacity="1" transform="matrix(1,0,0,1,49.986000061035156,50)"><path
          fill="rgb(72,137,244)"
          fill-opacity="1"
          d=" M-3.7290000915527344,-21.132999420166016 C-2.5179998874664307,-21.344999313354492 -1.2730000019073486,-21.45599937438965 -0.0010000000474974513,-21.45599937438965 C11.850000381469727,-21.45599937438965 21.45599937438965,-11.848999977111816 21.45599937438965,0.0010000000474974513 C21.45599937438965,0.0010000000474974513 21.45599937438965,0.0010000000474974513 21.45599937438965,0.0010000000474974513 C21.45599937438965,11.85200023651123 11.850000381469727,21.45599937438965 -0.0010000000474974513,21.45599937438965 C-11.85099983215332,21.45599937438965 -21.45599937438965,11.85200023651123 -21.45599937438965,0.0010000000474974513 C-21.45599937438965,-10.57699966430664 -13.802000045776367,-19.368000030517578 -3.7290000915527344,-21.132999420166016"
        /></g></g><g
      transform="matrix(5,0,0,5,34.3883056640625,0.001018524169921875)"
      opacity="1"
      style="display: block;"
    ><g
        opacity="1"
        transform="matrix(1,0,0,1,41.974998474121094,49.78499984741211)"
      ><path
          fill="rgb(238,238,238)"
          fill-opacity="1"
          d=" M6.927999973297119,0.16899999976158142 C6.927999973297119,-0.30300000309944153 6.888000011444092,-0.7770000100135803 6.807000160217285,-1.2410000562667847 C6.807000160217285,-1.2410000562667847 0.25999999046325684,-1.2410000562667847 0.25999999046325684,-1.2410000562667847 C0.25999999046325684,-1.2410000562667847 0.25999999046325684,1.4320000410079956 0.25999999046325684,1.4320000410079956 C0.25999999046325684,1.4320000410079956 4.010000228881836,1.4320000410079956 4.010000228881836,1.4320000410079956 C3.8540000915527344,2.2939999103546143 3.3540000915527344,3.058000087738037 2.621999979019165,3.5420000553131104 C2.621999979019165,3.5420000553131104 2.621999979019165,3.5439999103546143 2.621999979019165,3.5439999103546143 C2,3.9660000801086426 1.1970000267028809,4.203999996185303 0.2619999945163727,4.203999996185303 C-1.5490000247955322,4.203999996185303 -3.0840001106262207,2.9820001125335693 -3.634999990463257,1.340000033378601 C-3.634999990463257,1.340000033378601 -3.63700008392334,1.340000033378601 -3.63700008392334,1.340000033378601 C-3.927000045776367,0.4779999852180481 -3.927000045776367,-0.4560000002384186 -3.63700008392334,-1.3179999589920044 C-3.0880000591278076,-2.9630000591278076 -1.5520000457763672,-4.184999942779541 0.25999999046325684,-4.184999942779541 C1.2489999532699585,-4.199999809265137 2.2070000171661377,-3.828000068664551 2.9240000247955322,-3.1440000534057617 C2.9240000247955322,-3.1440000534057617 4.9039998054504395,-5.125999927520752 4.9039998054504395,-5.125999927520752 C3.6489999294281006,-6.303999900817871 1.9839999675750732,-6.952000141143799 0.25999999046325684,-6.932000160217285 C-2.365000009536743,-6.932000160217285 -4.763999938964844,-5.452000141143799 -5.942999839782715,-3.1050000190734863 C-6.927000045776367,-1.1430000066757202 -6.927000045776367,1.1679999828338623 -5.942999839782715,3.128999948501587 C-4.763999938964844,5.4730000495910645 -2.365000009536743,6.952000141143799 0.25999999046325684,6.952000141143799 C2.131999969482422,6.952000141143799 3.7109999656677246,6.335999965667725 4.861000061035156,5.275000095367432 C4.861000061035156,5.275000095367432 4.861000061035156,5.275000095367432 4.861000061035156,5.275000095367432 C6.172999858856201,4.065999984741211 6.927999973297119,2.2799999713897705 6.927999973297119,0.16899999976158142z"
        /></g></g></g></svg>
